<svg width="176" height="106" viewBox="0 0 176 106" fill="none" xmlns="http://www.w3.org/2000/svg">
<path d="M104.204 2.90527C103.527 3.75163 102.871 4.57682 102.236 5.38086C101.644 6.14258 101.051 6.94661 100.459 7.79297C104.733 9.35872 108.182 11.3053 110.806 13.6328C113.429 15.918 115.461 18.3301 116.899 20.8691C118.338 23.3659 119.29 25.8415 119.756 28.2959C120.264 30.708 120.518 32.8027 120.518 34.5801C120.518 37.0768 120.094 39.4678 119.248 41.7529C118.444 43.9958 117.344 46.0482 115.947 47.9102C114.593 49.7721 113.006 51.4014 111.187 52.7979C109.367 54.152 107.463 55.1888 105.474 55.9082C109.578 59.2936 112.625 63.0599 114.614 67.207C116.645 71.3542 117.661 75.5436 117.661 79.7754C117.661 83.3301 116.921 86.6943 115.439 89.8682C114.001 93.042 112.033 95.8138 109.536 98.1836C107.039 100.553 104.077 102.437 100.649 103.833C97.264 105.229 93.6458 105.928 89.7949 105.928C86.4518 105.928 83.3626 105.378 80.5273 104.277C77.7344 103.219 75.2165 101.759 72.9736 99.8975C70.7731 98.0355 68.8476 95.835 67.1973 93.2959C65.5892 90.7568 64.3196 88.0485 63.3887 85.1709L66.5625 84.2188C68.1282 89.2969 70.7096 93.2113 74.3066 95.9619C77.9036 98.7549 82.2412 100.151 87.3193 100.151C90.4508 100.151 93.4342 99.5589 96.2695 98.374C99.1471 97.2314 101.665 95.6657 103.823 93.6768C105.981 91.6455 107.695 89.2757 108.965 86.5674C110.234 83.8167 110.869 80.8545 110.869 77.6807C110.869 75.5225 110.573 73.4701 109.98 71.5234C109.388 69.5768 108.605 67.736 107.632 66.001C106.659 64.2659 105.558 62.679 104.331 61.2402C103.146 59.7591 101.919 58.4473 100.649 57.3047C99.5068 57.5163 98.3642 57.6855 97.2217 57.8125C96.0791 57.9395 94.9577 58.0029 93.8574 58.0029C92.334 58.0029 90.7682 57.8971 89.1601 57.6855C87.5944 57.4316 86.1556 57.0719 84.8437 56.6064C83.5742 56.1409 82.5163 55.5273 81.6699 54.7656C80.8659 54.0039 80.4639 53.0729 80.4639 51.9727C80.4639 51.7188 80.5273 51.3591 80.6543 50.8936C80.7812 50.3857 81.0351 49.8991 81.416 49.4336C81.8392 48.9681 82.4528 48.5661 83.2568 48.2275C84.0609 47.8467 85.1611 47.6562 86.5576 47.6562C87.8695 47.6562 89.1813 47.8044 90.4931 48.1006C91.8473 48.3968 93.138 48.7988 94.3652 49.3066C95.5924 49.7721 96.7773 50.3223 97.9199 50.957C99.0625 51.5495 100.099 52.1631 101.03 52.7979C102.554 52.1208 104.077 51.2109 105.601 50.0684C107.166 48.8835 108.584 47.4447 109.854 45.752C111.123 44.0592 112.16 42.1126 112.964 39.9121C113.768 37.7116 114.17 35.236 114.17 32.4854C114.17 27.6611 112.837 23.3236 110.171 19.4727C107.505 15.6217 103.548 12.6807 98.3008 10.6494C95.7617 14.2041 93.3919 17.7376 91.1914 21.25C88.9909 24.7624 86.9385 28.2747 85.0342 31.7871C83.1299 35.2995 81.3314 38.8118 79.6387 42.3242C77.9883 45.8366 76.4014 49.3913 74.8779 52.9883C71.3655 61.1979 67.9378 68.2227 64.5947 74.0625C61.2516 79.86 57.6758 84.5996 53.8672 88.2812C50.1009 91.9629 45.9749 94.6501 41.4892 96.3428C37.0459 98.0778 31.9466 98.9453 26.1914 98.9453C21.748 98.9453 17.9183 98.2048 14.7021 96.7236C11.486 95.2848 8.84113 93.2959 6.76756 90.7568C4.694 88.2178 3.1494 85.2767 2.13377 81.9336C1.16047 78.5482 0.673813 74.9512 0.673813 71.1426C0.673813 66.9108 1.3509 62.5521 2.70506 58.0664C4.05923 53.5384 6.06932 49.0316 8.73534 44.5459C10.428 41.7106 12.5228 38.7695 15.0195 35.7227C17.5163 32.6335 20.3727 29.6077 23.5889 26.6455C26.805 23.641 30.3808 20.8057 34.3164 18.1396C38.2943 15.4313 42.5683 13.0827 47.1387 11.0938C51.7513 9.0625 56.6601 7.45443 61.8652 6.26953C67.1126 5.04232 72.6351 4.42871 78.4326 4.42871C81.9873 4.42871 85.2246 4.61914 88.1445 5C91.1068 5.33854 93.8363 5.84635 96.333 6.52344C97.3063 5.55013 98.2796 4.57682 99.2529 3.60352C100.269 2.63021 101.305 1.6569 102.363 0.683594L104.204 2.90527ZM78.9404 29.248C81.1833 25.5241 83.5107 22.0329 85.9228 18.7744C88.3773 15.4736 91.001 12.2998 93.7939 9.25293C92.1859 8.87207 90.472 8.57585 88.6523 8.36426C86.875 8.15267 84.9918 8.04688 83.0029 8.04688C76.6129 8.04688 70.3076 8.93555 64.0869 10.7129C57.9085 12.4479 52.0052 14.8812 46.3769 18.0127C40.791 21.1442 35.6071 24.8682 30.8252 29.1846C26.0433 33.501 21.8961 38.1982 18.3838 43.2764C14.9137 48.3122 12.1842 53.6442 10.1953 59.2725C8.24868 64.9007 7.27538 70.6136 7.27538 76.4111C7.27538 79.2887 7.65623 81.9124 8.41795 84.2822C9.22199 86.6097 10.4069 88.6198 11.9726 90.3125C13.5384 91.9629 15.4639 93.2536 17.749 94.1846C20.0765 95.0732 22.7425 95.5176 25.7471 95.5176C30.7829 95.5176 35.1839 94.5866 38.9502 92.7246C42.7165 90.8203 46.0596 88.2389 48.9795 84.9805C51.9417 81.722 54.6077 77.9346 56.9775 73.6182C59.3473 69.2594 61.6536 64.6257 63.8965 59.7168C66.1816 54.8079 68.5091 49.751 70.8789 44.5459C73.2487 39.3408 75.9359 34.2415 78.9404 29.248ZM96.7139 54.0674C96.0791 53.6019 95.3174 53.1787 94.4287 52.7979C93.5823 52.3747 92.6937 52.0361 91.7627 51.7822C90.8317 51.486 89.9007 51.2533 88.9697 51.084C88.0387 50.9147 87.2347 50.8301 86.5576 50.8301C85.3727 50.8301 84.611 50.9782 84.2724 51.2744C83.9762 51.5283 83.8281 51.7611 83.8281 51.9727C83.8281 52.3535 84.1032 52.6921 84.6533 52.9883C85.2458 53.2845 85.9652 53.5596 86.8115 53.8135C87.7002 54.0251 88.6735 54.1943 89.7314 54.3213C90.7894 54.4482 91.8262 54.5117 92.8418 54.5117C93.3073 54.5117 93.8363 54.4906 94.4287 54.4482C95.0211 54.4059 95.7829 54.279 96.7139 54.0674Z" fill="#21242C"/>
<path d="M164.57 55.6543C164.824 54.9772 164.951 54.2578 164.951 53.4961C164.951 52.1419 164.401 51.084 163.301 50.3223C162.243 49.5182 160.55 49.1162 158.223 49.1162C156.318 49.1162 154.393 49.5394 152.446 50.3857C150.542 51.1898 148.701 52.3112 146.924 53.75C145.146 55.1888 143.475 56.9027 141.909 58.8916C140.386 60.8805 139.053 63.0387 137.91 65.3662C136.81 67.6937 135.921 70.1693 135.244 72.793C134.609 75.3744 134.292 77.9769 134.292 80.6006C134.292 82.7165 134.525 84.515 134.99 85.9961C135.456 87.4772 136.112 88.6833 136.958 89.6143C137.804 90.5452 138.82 91.2223 140.005 91.6455C141.19 92.0264 142.523 92.2168 144.004 92.2168C146.924 92.2168 149.759 91.5609 152.51 90.249C155.26 88.9372 157.863 87.2445 160.317 85.1709C162.814 83.055 165.099 80.7064 167.173 78.125C169.289 75.5436 171.151 73.0046 172.759 70.5078L175.107 72.2852C172.822 76.1361 170.389 79.5215 167.808 82.4414C165.226 85.319 162.581 87.7311 159.873 89.6777C157.165 91.6244 154.414 93.0843 151.621 94.0576C148.828 95.0309 146.099 95.5176 143.433 95.5176C141.317 95.5176 139.285 95.2002 137.339 94.5654C135.435 93.9307 133.742 92.9785 132.261 91.709C130.822 90.3971 129.658 88.7256 128.77 86.6943C127.923 84.6631 127.5 82.251 127.5 79.458C127.5 76.1572 127.965 73.0469 128.896 70.127C129.87 67.1647 131.139 64.4352 132.705 61.9385C134.313 59.4417 136.154 57.1989 138.228 55.21C140.301 53.1787 142.459 51.4648 144.702 50.0684C146.987 48.6719 149.272 47.6139 151.558 46.8945C153.885 46.1328 156.064 45.752 158.096 45.752C160.169 45.752 161.862 46.0482 163.174 46.6406C164.486 47.1908 165.522 47.8678 166.284 48.6719C167.046 49.4759 167.554 50.3223 167.808 51.2109C168.104 52.0996 168.252 52.8613 168.252 53.4961C168.252 54.5117 168.104 55.5908 167.808 56.7334C167.511 57.876 167.088 58.9339 166.538 59.9072C166.03 60.8382 165.374 61.6211 164.57 62.2559C163.809 62.8906 162.962 63.208 162.031 63.208C161.1 63.208 160.296 62.9118 159.619 62.3193C158.942 61.6846 158.604 60.9017 158.604 59.9707C158.604 59.9284 158.625 59.6745 158.667 59.209C158.752 58.7435 158.963 58.2568 159.302 57.749C159.64 57.1989 160.148 56.7122 160.825 56.2891C161.545 55.8659 162.539 55.6543 163.809 55.6543H164.57Z" fill="#21242C"/>
</svg>
