<svg width="16" height="16" viewBox="0 0 16 16" fill="none" xmlns="http://www.w3.org/2000/svg">
<path d="M6.83985 4.64224C7.33148 3.41661 7.57729 2.8038 8 2.8038C8.4227 2.8038 8.66852 3.41661 9.16014 4.64224L9.18304 4.69931C9.46078 5.39173 9.59965 5.73794 9.88268 5.94837C10.1657 6.1588 10.5373 6.19207 11.2803 6.25862L11.4147 6.27065C12.6308 6.37957 13.2389 6.43402 13.369 6.82089C13.4991 7.20775 13.0475 7.61859 12.1444 8.44027L11.8429 8.71451C11.3857 9.13045 11.1571 9.33843 11.0506 9.61101C11.0307 9.66186 11.0142 9.71395 11.0011 9.76696C10.9311 10.0511 10.998 10.3528 11.1319 10.9562L11.1736 11.1441C11.4196 12.253 11.5427 12.8075 11.3279 13.0467C11.2476 13.136 11.1433 13.2004 11.0274 13.232C10.7173 13.3166 10.277 12.9579 9.39638 12.2403C8.81814 11.7691 8.52903 11.5335 8.19709 11.4805C8.06652 11.4597 7.93347 11.4597 7.80291 11.4805C7.47097 11.5335 7.18185 11.7691 6.60362 12.2403C5.72302 12.9579 5.28273 13.3166 4.9726 13.232C4.85671 13.2004 4.7524 13.136 4.67213 13.0467C4.45733 12.8075 4.58035 12.253 4.8264 11.1441L4.86807 10.9562C5.00195 10.3528 5.06889 10.0511 4.99886 9.76696C4.9858 9.71395 4.96927 9.66186 4.9494 9.61101C4.84285 9.33843 4.61426 9.13045 4.15706 8.71451L3.85564 8.44027C2.95249 7.61859 2.50091 7.20775 2.63102 6.82089C2.76113 6.43402 3.3692 6.37957 4.58533 6.27065L4.71967 6.25862C5.46274 6.19207 5.83428 6.1588 6.11731 5.94837C6.40034 5.73794 6.53921 5.39173 6.81696 4.69931L6.83985 4.64224Z" fill="#E2A03F" stroke="#E2A03F" stroke-width="0.625"/>
</svg>
