<svg width="162" height="127" viewBox="0 0 162 127" fill="none" xmlns="http://www.w3.org/2000/svg">
<path d="M59.57 70.763H20.05L12.77 90.913H0.289978L33.05 0.822998H46.7L79.33 90.913H66.85L59.57 70.763ZM56.19 61.143L39.81 15.383L23.43 61.143H56.19Z" fill="#21242C"/>
<path d="M122.988 18.503C129.141 18.503 134.514 19.8463 139.108 22.533C143.788 25.2197 147.254 28.5997 149.508 32.673V19.673H161.468V92.473C161.468 98.973 160.081 104.736 157.308 109.763C154.534 114.876 150.548 118.863 145.348 121.723C140.234 124.583 134.254 126.013 127.408 126.013C118.048 126.013 110.248 123.803 104.008 119.383C97.7676 114.963 94.0843 108.94 92.9576 101.313H104.658C105.958 105.646 108.644 109.113 112.718 111.713C116.791 114.4 121.688 115.743 127.408 115.743C133.908 115.743 139.194 113.706 143.268 109.633C147.428 105.56 149.508 99.8397 149.508 92.473V77.523C147.168 81.683 143.701 85.1497 139.108 87.923C134.514 90.6963 129.141 92.083 122.988 92.083C116.661 92.083 110.898 90.523 105.698 87.403C100.584 84.283 96.5543 79.9063 93.6076 74.273C90.661 68.6397 89.1876 62.2263 89.1876 55.033C89.1876 47.753 90.661 41.383 93.6076 35.923C96.5543 30.3763 100.584 26.0863 105.698 23.053C110.898 20.0197 116.661 18.503 122.988 18.503ZM149.508 55.163C149.508 49.7897 148.424 45.1097 146.258 41.123C144.091 37.1363 141.144 34.103 137.418 32.023C133.778 29.8563 129.748 28.773 125.328 28.773C120.908 28.773 116.878 29.813 113.238 31.893C109.598 33.973 106.694 37.0063 104.528 40.993C102.361 44.9797 101.278 49.6597 101.278 55.033C101.278 60.493 102.361 65.2597 104.528 69.333C106.694 73.3197 109.598 76.3963 113.238 78.563C116.878 80.643 120.908 81.683 125.328 81.683C129.748 81.683 133.778 80.643 137.418 78.563C141.144 76.3963 144.091 73.3197 146.258 69.333C148.424 65.2597 149.508 60.5363 149.508 55.163Z" fill="#21242C"/>
</svg>
