<svg width="171" height="147" viewBox="0 0 171 147" fill="none" xmlns="http://www.w3.org/2000/svg">
<path d="M5.05001 103.935C3.75001 103.935 2.70001 103.735 1.90001 103.335C1.10001 103.035 0.700012 102.585 0.700012 101.985C0.700012 100.685 2.35001 99.5346 5.65001 98.5346C8.55001 97.6346 11.05 96.3846 13.15 94.7846C15.25 93.0846 17.05 90.4846 18.55 86.9846C23.85 74.7846 28.45 63.7346 32.35 53.8346C36.35 43.8346 41.1 31.3846 46.6 16.4846C47.7 13.3846 48.4 10.4846 48.7 7.78462C49 7.68462 49.7 7.48462 50.8 7.18462C52 6.78462 53.1 6.23462 54.1 5.53462C54.9 4.93463 55.5 4.03463 55.9 2.83462C56.4 1.63462 56.75 0.834619 56.95 0.434618C57.05 0.334619 57.15 0.334619 57.25 0.434618C57.45 0.434618 57.6 0.484621 57.7 0.584625C57.9 1.08462 58.05 1.63462 58.15 2.23462C58.35 2.83462 58.55 3.38462 58.75 3.88462C66.15 27.1846 75.05 53.8846 85.45 83.9846C87.35 89.4846 89.45 93.2346 91.75 95.2346C94.05 97.1346 97 98.3846 100.6 98.9846C102.2 99.2846 103.4 99.7846 104.2 100.485C105.1 101.085 105.55 101.735 105.55 102.435C105.55 103.435 104.1 103.935 101.2 103.935L93.1 103.635C87.5 103.235 83.25 103.035 80.35 103.035L64.6 103.185C61.7 103.185 60.25 102.585 60.25 101.385C60.25 100.785 60.7 100.235 61.6 99.7346C62.6 99.1346 63.8 98.7346 65.2 98.5346C71.3 97.5346 74.35 95.2846 74.35 91.7846C74.35 88.5846 72.4 80.4846 68.5 67.4846C68.3 66.7846 67.9 66.3346 67.3 66.1346C66.8 65.9346 65.85 65.8346 64.45 65.8346H36.1C35 65.8346 34.15 66.7346 33.55 68.5346C32.45 71.7346 31.15 75.9346 29.65 81.1346C28.15 86.2346 27.4 89.2346 27.4 90.1346C27.4 92.2346 28.2 94.0346 29.8 95.5346C31.5 97.0346 33.6 98.0846 36.1 98.6846C37.9 99.1846 39.15 99.6346 39.85 100.035C40.65 100.435 41.05 100.985 41.05 101.685C41.05 102.785 39.6 103.335 36.7 103.335C34.9 103.335 33.4 103.285 32.2 103.185L23.05 103.035C21.35 103.035 19.45 103.085 17.35 103.185C15.35 103.385 13.85 103.485 12.85 103.485C10.05 103.785 7.45001 103.935 5.05001 103.935ZM63.4 60.8846C64 60.8846 64.5 60.8346 64.9 60.7346C65.3 60.6346 65.5 60.4346 65.5 60.1346L65.2 58.6346L53.5 22.0346C52.9 20.2346 52.45 19.3346 52.15 19.3346C51.95 19.3346 51.55 20.1846 50.95 21.8846L37.3 58.6346L37 59.8346C37 60.3346 37.2 60.6346 37.6 60.7346C38.1 60.8346 38.95 60.8846 40.15 60.8846H63.4Z" fill="#21242C"/>
<path d="M169.057 44.9846C169.557 44.9846 170.007 45.1846 170.407 45.5846C170.807 45.9846 171.007 46.5346 171.007 47.2346C171.007 48.1346 170.507 49.0846 169.507 50.0846C169.007 50.5846 168.607 50.8346 168.307 50.8346H164.257C161.557 50.8346 160.057 51.2346 159.757 52.0346C159.157 53.8346 158.857 56.1346 158.857 58.9346C158.857 63.9346 157.757 68.6346 155.557 73.0346C153.357 77.3346 150.407 80.7846 146.707 83.3846C143.107 85.9846 139.207 87.2846 135.007 87.2846C132.107 87.2846 129.457 86.7846 127.057 85.7846C125.257 86.6846 123.757 87.7346 122.557 88.9346C121.357 90.1346 120.757 91.1846 120.757 92.0846C120.757 96.2846 127.257 98.7846 140.257 99.5846C149.457 100.085 156.307 101.585 160.807 104.085C165.307 106.585 167.557 110.135 167.557 114.735C167.557 119.735 165.907 124.735 162.607 129.735C159.307 134.735 155.057 138.785 149.857 141.885C144.657 145.085 139.407 146.685 134.107 146.685C125.607 146.685 118.857 145.085 113.857 141.885C108.957 138.685 106.507 134.285 106.507 128.685C106.507 126.085 106.907 123.885 107.707 122.085C108.507 120.385 109.757 118.835 111.457 117.435L117.457 112.635L124.057 107.385C119.357 106.485 115.957 105.185 113.857 103.485C111.857 101.785 110.857 99.4846 110.857 96.5846C110.857 94.7846 112.007 92.9346 114.307 91.0346C116.707 89.2346 118.557 87.8346 119.857 86.8346C121.157 85.7346 122.107 84.7346 122.707 83.8346C119.107 81.7346 116.207 78.9846 114.007 75.5846C111.807 72.0846 110.707 68.3846 110.707 64.4846C110.707 59.9846 111.907 55.9346 114.307 52.3346C116.707 48.7346 119.907 45.9346 123.907 43.9346C127.907 41.8346 132.207 40.7846 136.807 40.7846C139.807 40.7846 143.407 41.4846 147.607 42.8846C148.307 43.1846 149.357 43.5346 150.757 43.9346C152.957 44.5346 154.757 44.9346 156.157 45.1346C157.557 45.3346 159.107 45.4346 160.807 45.4346C161.907 45.4346 163.557 45.3346 165.757 45.1346L169.057 44.9846ZM135.907 82.0346C139.607 82.0346 142.707 80.1346 145.207 76.3346C147.807 72.4346 149.107 67.6346 149.107 61.9346C149.107 59.1346 148.407 56.4346 147.007 53.8346C145.707 51.2346 143.957 49.1846 141.757 47.6846C139.557 46.0846 137.257 45.2846 134.857 45.2846C132.557 45.2846 130.357 46.0846 128.257 47.6846C126.257 49.2846 124.607 51.4346 123.307 54.1346C122.107 56.8346 121.507 59.6846 121.507 62.6846C121.507 66.0846 122.157 69.2846 123.457 72.2846C124.757 75.2846 126.507 77.6846 128.707 79.4846C130.907 81.1846 133.307 82.0346 135.907 82.0346ZM158.407 119.535C158.407 116.235 156.657 113.735 153.157 112.035C149.657 110.335 143.907 109.235 135.907 108.735C133.007 108.535 130.857 108.335 129.457 108.135C125.157 111.035 122.107 113.835 120.307 116.535C118.607 119.335 117.757 122.635 117.757 126.435C117.757 130.435 119.507 133.785 123.007 136.485C126.607 139.285 131.007 140.685 136.207 140.685C142.107 140.685 146.857 139.335 150.457 136.635C152.957 134.735 154.907 132.235 156.307 129.135C157.707 126.135 158.407 122.935 158.407 119.535Z" fill="#21242C"/>
</svg>
